<svg xmlns="http://www.w3.org/2000/svg" xmlns:svg="http://www.w3.org/2000/svg" id="Layer_1" x="0" y="0" enable-background="new 0 0 1000 1000" version="1.1" viewBox="0 0 1000 1000" xml:space="preserve"><metadata id="metadata141"/><style id="style2" type="text/css">.st0{fill:#f7b85c}.st3{fill:#212552}.st4{fill:#92d6e9}.st5,.st6{stroke-width:6;stroke-linecap:round;stroke-linejoin:round;stroke-miterlimit:10}.st5{opacity:.3;fill:#0a1e2b;stroke:#0a1e2b;enable-background:new}.st6{fill:none;stroke:#212552}.st7{fill:#cbedf9}.st8{fill:#e8f9ff}.st10,.st9{stroke-linecap:round;stroke-linejoin:round;stroke-miterlimit:10}.st9{opacity:.23;fill:#0a1e2b;stroke:#0a1e2b;stroke-width:6;enable-background:new}.st10{fill:none;stroke:#212552;stroke-width:10}.st11{fill:#ffea9e}.st12{fill:#edc75d}.st13,.st14{fill:none;stroke:#212552;stroke-width:8;stroke-linecap:round;stroke-linejoin:round;stroke-miterlimit:10}.st14{fill:#5f9e71;stroke-width:6}.st15{fill:#90c49e}.st16{fill:#fff}</style><rect id="XMLID_31_" width="1000" height="1000" y="0" class="st0"/><ellipse id="XMLID_75_" cx="495.682" cy="772.201" fill="#212552" stroke-width="1.468" class="st3" rx="268.098" ry="33.475"/><g id="XMLID_3_" transform="matrix(1.4682236,0,0,1.4682236,-238.42936,-234.26578)"><path id="XMLID_20_" fill="#92d6e9" d="M 459.5,669.4 V 662 c 0,-3.3 -2.7,-6 -6,-6 h -66 c -3.3,0 -6,2.7 -6,6 v 22 c 0,3.3 2.7,6 6,6 h 43.9 c 4.8,0 9.4,-1.9 12.8,-5.3 z" class="st4"/><path id="XMLID_50_" fill="#0a1e2b" stroke="#0a1e2b" stroke-linecap="round" stroke-linejoin="round" stroke-miterlimit="10" stroke-width="6" d="m 453.5,656 h -66 c -3.3,0 -6,2.7 -6,6 v 20.4 h 65 l 13,-13 V 662 c 0,-3.3 -2.7,-6 -6,-6 z" class="st5" enable-background="new" opacity=".3"/><path id="XMLID_18_" fill="#92d6e9" d="M 540.5,669.4 V 662 c 0,-3.3 2.7,-6 6,-6 h 66 c 3.3,0 6,2.7 6,6 v 22 c 0,3.3 -2.7,6 -6,6 h -43.9 c -4.8,0 -9.4,-1.9 -12.8,-5.3 z" class="st4"/><path id="XMLID_51_" fill="#0a1e2b" stroke="#0a1e2b" stroke-linecap="round" stroke-linejoin="round" stroke-miterlimit="10" stroke-width="6" d="m 612.5,656 h -66 c -3.3,0 -6,2.7 -6,6 v 7.4 l 13,13 h 65 V 662 c 0,-3.3 -2.7,-6 -6,-6 z" class="st5" enable-background="new" opacity=".3"/><path id="XMLID_27_" fill="none" stroke="#212552" stroke-linecap="round" stroke-linejoin="round" stroke-miterlimit="10" stroke-width="6" d="M 459.5,669.4 V 662 c 0,-3.3 -2.7,-6 -6,-6 h -66 c -3.3,0 -6,2.7 -6,6 v 22 c 0,3.3 2.7,6 6,6 h 43.9 c 4.8,0 9.4,-1.9 12.8,-5.3 z" class="st6"/><path id="XMLID_26_" fill="none" stroke="#212552" stroke-linecap="round" stroke-linejoin="round" stroke-miterlimit="10" stroke-width="6" d="M 540.5,669.4 V 662 c 0,-3.3 2.7,-6 6,-6 h 66 c 3.3,0 6,2.7 6,6 v 22 c 0,3.3 -2.7,6 -6,6 h -43.9 c -4.8,0 -9.4,-1.9 -12.8,-5.3 z" class="st6"/><path id="XMLID_2_" fill="#cbedf9" d="M 630,669.5 H 370 c -22.1,0 -40,-17.9 -40,-40 v -260 c 0,-22.1 17.9,-40 40,-40 h 260 c 22.1,0 40,17.9 40,40 v 260 c 0,22.1 -17.9,40 -40,40 z" class="st7"/><path id="XMLID_38_" fill="#e8f9ff" d="M 630,329.5 H 370 c -22.1,0 -40,17.9 -40,40 v 23 c 0,-22.1 17.9,-40 40,-40 h 260 c 22.1,0 40,17.9 40,40 v -23 c 0,-22.1 -17.9,-40 -40,-40 z" class="st8"/><polygon id="XMLID_58_" fill="#0a1e2b" stroke="#0a1e2b" stroke-linecap="round" stroke-linejoin="round" stroke-miterlimit="10" stroke-width="6" points="594.3 329.1 577 365.5 568.7 329.1" class="st9" enable-background="new" opacity=".23"/><path id="XMLID_45_" fill="#92d6e9" d="M 630,646.5 H 370 c -22.1,0 -40,-17.9 -40,-40 v 23 c 0,22.1 17.9,40 40,40 h 260 c 22.1,0 40,-17.9 40,-40 v -23 c 0,22.1 -17.9,40 -40,40 z" class="st4"/><path id="XMLID_19_" fill="none" stroke="#212552" stroke-linecap="round" stroke-linejoin="round" stroke-miterlimit="10" stroke-width="6" d="M 630,669.5 H 370 c -22.1,0 -40,-17.9 -40,-40 v -260 c 0,-22.1 17.9,-40 40,-40 h 260 c 22.1,0 40,17.9 40,40 v 260 c 0,22.1 -17.9,40 -40,40 z" class="st6"/><path id="XMLID_82_" fill="#e8f9ff" d="M 618,365.5 H 382 c -8.8,0 -16,7.2 -16,16 v 8 c 0,-8.8 7.2,-13 16,-13 h 236 c 8.8,0 16,4.2 16,13 v -8 c 0,-8.9 -7.2,-16 -16,-16 z" class="st8"/><path id="XMLID_83_" fill="#92d6e9" d="M 618,620.5 H 382 c -8.8,0 -16,-7.2 -16,-16 v 13 c 0,8.8 7.2,16 16,16 h 236 c 8.8,0 16,-7.2 16,-16 v -13 c 0,8.8 -7.2,16 -16,16 z" class="st4"/><path id="XMLID_7_" fill="none" stroke="#212552" stroke-linecap="round" stroke-linejoin="round" stroke-miterlimit="10" stroke-width="6" d="m 382,633.5 c -8.8,0 -16,-7.2 -16,-16 v -236 c 0,-8.8 7.2,-16 16,-16 h 236 c 8.8,0 16,7.2 16,16 v 236 c 0,8.8 -7.2,16 -16,16 z" class="st6"/><path id="XMLID_48_" fill="#0a1e2b" stroke="#0a1e2b" stroke-linecap="round" stroke-linejoin="round" stroke-miterlimit="10" stroke-width="6" d="m 605.3,594.6 h -2 c -2.2,0 -4,-1.8 -4,-4 v -152 c 0,-2.2 1.8,-4 4,-4 h 2 c 2.2,0 4,1.8 4,4 v 152 c 0,2.2 -1.8,4 -4,4 z" class="st9" enable-background="new" opacity=".23"/><path id="XMLID_13_" fill="#92d6e9" d="m 605.3,574.6 h -2 c -2.2,0 -4,-1.8 -4,-4 v -152 c 0,-2.2 1.8,-4 4,-4 h 2 c 2.2,0 4,1.8 4,4 v 152 c 0,2.2 -1.8,4 -4,4 z" class="st4"/><path id="XMLID_14_" fill="none" stroke="#212552" stroke-linecap="round" stroke-linejoin="round" stroke-miterlimit="10" stroke-width="6" d="m 605.3,574.6 h -2 c -2.2,0 -4,-1.8 -4,-4 v -152 c 0,-2.2 1.8,-4 4,-4 h 2 c 2.2,0 4,1.8 4,4 v 152 c 0,2.2 -1.8,4 -4,4 z" class="st6"/><circle id="XMLID_39_" cx="500" cy="507.5" r="65" fill="#0a1e2b" stroke="#0a1e2b" stroke-linecap="round" stroke-linejoin="round" stroke-miterlimit="10" stroke-width="6" class="st9" enable-background="new" opacity=".23"/><circle id="XMLID_32_" cx="500" cy="499.5" r="65" fill="#cbedf9" class="st7"/><circle id="XMLID_5_" cx="500" cy="499.5" r="65" fill="none" stroke="#212552" stroke-linecap="round" stroke-linejoin="round" stroke-miterlimit="10" stroke-width="6" class="st6"/><circle id="XMLID_34_" cx="500" cy="499.5" r="54" fill="#92d6e9" class="st4"/><line id="XMLID_10_" x1="500" x2="500" y1="458.5" y2="540.5" fill="none" stroke="#212552" stroke-linecap="round" stroke-linejoin="round" stroke-miterlimit="10" stroke-width="10" class="st10"/><line id="XMLID_8_" x1="541" x2="459" y1="499.5" y2="499.5" fill="none" stroke="#212552" stroke-linecap="round" stroke-linejoin="round" stroke-miterlimit="10" stroke-width="10" class="st10"/><line id="XMLID_12_" x1="529" x2="471" y1="470.5" y2="528.5" fill="none" stroke="#212552" stroke-linecap="round" stroke-linejoin="round" stroke-miterlimit="10" stroke-width="10" class="st10"/><line id="XMLID_11_" x1="529" x2="471" y1="528.5" y2="470.5" fill="none" stroke="#212552" stroke-linecap="round" stroke-linejoin="round" stroke-miterlimit="10" stroke-width="10" class="st10"/><path id="XMLID_37_" fill="#0a1e2b" stroke="#0a1e2b" stroke-linecap="round" stroke-linejoin="round" stroke-miterlimit="10" stroke-width="6" d="m 500,547.2 v 0 c -13.8,0 -25,-11.2 -25,-25 v -25 h 50 v 25 c 0,13.8 -11.2,25 -25,25 z" class="st5" enable-background="new" opacity=".3"/><path id="XMLID_46_" fill="#0a1e2b" stroke="#0a1e2b" stroke-linecap="round" stroke-linejoin="round" stroke-miterlimit="10" stroke-width="6" d="m 366,462 v 0 c -4.4,0 -8,-3.6 -8,-8 v -24 c 0,-4.4 3.6,-8 8,-8 v 0 c 4.4,0 8,3.6 8,8 v 24 c 0,4.4 -3.6,8 -8,8 z" class="st9" enable-background="new" opacity=".23"/><path id="XMLID_52_" fill="#0a1e2b" stroke="#0a1e2b" stroke-linecap="round" stroke-linejoin="round" stroke-miterlimit="10" stroke-width="6" d="m 366,592.5 v 0 c -4.4,0 -8,-3.6 -8,-8 v -24 c 0,-4.4 3.6,-8 8,-8 v 0 c 4.4,0 8,3.6 8,8 v 24 c 0,4.4 -3.6,8 -8,8 z" class="st9" enable-background="new" opacity=".23"/><path id="XMLID_36_" fill="#92d6e9" d="m 366,454 v 0 c -4.4,0 -8,-3.6 -8,-8 v -24 c 0,-4.4 3.6,-8 8,-8 v 0 c 4.4,0 8,3.6 8,8 v 24 c 0,4.4 -3.6,8 -8,8 z" class="st4"/><path id="XMLID_33_" fill="#92d6e9" d="m 366,585 v 0 c -4.4,0 -8,-3.6 -8,-8 v -24 c 0,-4.4 3.6,-8 8,-8 v 0 c 4.4,0 8,3.6 8,8 v 24 c 0,4.4 -3.6,8 -8,8 z" class="st4"/><path id="XMLID_15_" fill="none" stroke="#212552" stroke-linecap="round" stroke-linejoin="round" stroke-miterlimit="10" stroke-width="6" d="m 366,454 v 0 c -4.4,0 -8,-3.6 -8,-8 v -24 c 0,-4.4 3.6,-8 8,-8 v 0 c 4.4,0 8,3.6 8,8 v 24 c 0,4.4 -3.6,8 -8,8 z" class="st6"/><path id="XMLID_17_" fill="none" stroke="#212552" stroke-linecap="round" stroke-linejoin="round" stroke-miterlimit="10" stroke-width="6" d="m 366,585 v 0 c -4.4,0 -8,-3.6 -8,-8 v -24 c 0,-4.4 3.6,-8 8,-8 v 0 c 4.4,0 8,3.6 8,8 v 24 c 0,4.4 -3.6,8 -8,8 z" class="st6"/><circle id="XMLID_29_" cx="500" cy="499.5" r="25" fill="#ffea9e" class="st11"/><circle id="XMLID_72_" cx="500" cy="499.5" r="11.2" fill="#edc75d" class="st12"/><circle id="XMLID_9_" cx="500" cy="499.5" r="23" fill="none" stroke="#212552" stroke-linecap="round" stroke-linejoin="round" stroke-miterlimit="10" stroke-width="8" class="st13"/><path id="XMLID_54_" fill="#5f9e71" stroke="#212552" stroke-linecap="round" stroke-linejoin="round" stroke-miterlimit="10" stroke-width="6" d="m 579,365.5 h -68.5 v -52.2 c 0,-4 3.2,-7.2 7.2,-7.2 h 54 c 4,0 7.2,3.2 7.2,7.2 l 0.1,52.2 z" class="st14"/><path id="XMLID_67_" fill="#90c49e" d="m 565.5,318.5 h -14.6 c 0,3.4 -2.7,6.1 -6.1,6.1 -3.4,0 -6.1,-2.7 -6.1,-6.1 H 524 c -1.7,0 -3.2,1.4 -3.2,3.2 v 43.8 h 47.8 v -43.8 c 0.1,-1.8 -1.4,-3.2 -3.1,-3.2 z" class="st15"/><ellipse id="XMLID_56_" cx="544.8" cy="354.8" fill="#fff" class="st16" rx="15" ry="14.3"/><path id="XMLID_53_" fill="none" stroke="#212552" stroke-linecap="round" stroke-linejoin="round" stroke-miterlimit="10" stroke-width="6" d="m 579,365.5 h -68.5 v -52.2 c 0,-4 3.2,-7.2 7.2,-7.2 h 54 c 4,0 7.2,3.2 7.2,7.2 l 0.1,52.2 z" class="st6"/></g><g id="XMLID_6_" transform="matrix(1.4682236,0,0,1.4682236,-238.42936,-234.26578)"><line id="XMLID_22_" x1="698" x2="677.8" y1="347.3" y2="344.5" fill="none" stroke="#212552" stroke-linecap="round" stroke-linejoin="round" stroke-miterlimit="10" stroke-width="6" class="st6"/><line id="XMLID_21_" x1="649.9" x2="646.9" y1="315.6" y2="295.4" fill="none" stroke="#212552" stroke-linecap="round" stroke-linejoin="round" stroke-miterlimit="10" stroke-width="6" class="st6"/><line id="XMLID_16_" x1="669.9" x2="684.4" y1="322.9" y2="308.4" fill="none" stroke="#212552" stroke-linecap="round" stroke-linejoin="round" stroke-miterlimit="10" stroke-width="6" class="st6"/></g></svg>